<?xml version="1.0" encoding="UTF-8"?>
<svg xmlns="http://www.w3.org/2000/svg" viewBox="0 0 1080 1080">
  <defs>
    <style>
      .cls-1 {
        fill: #ffb850;
      }

      .cls-2 {
        fill: #fff2d0;
      }

      .cls-3 {
        fill: #5e4432;
      }
    </style>
  </defs>
  <rect class="cls-3" width="1080" height="1080"/>
  <g id="Layer_1" data-name="Layer 1">
    <path class="cls-2" d="M585.25,876.33l-43.4,2.98c-10.88.75-23.16.7-33.5-1.87l-43.81-10.88c-7.15-1.78-14.9-3.31-21.31-6.69-10.73-5.66-22.56-9.37-32.33-16.18l-23.42-16.34c-10.16-7.09-17.51-17.66-23.99-28.19-10.14-16.47-20.3-32.21-27.93-49.89l-15.07-34.95c-3.23-7.49-7.24-14.69-8.77-22.82l-4.42-23.48c-3.07-16.27,1.29-32.53,2.83-48.76l2.79-29.41c.91-9.64,5.6-18.72,8.38-28.11.63-2.12.72-6.62,1.93-8.62l16.03-26.42c5.86-9.66,12.66-18.5,21.16-26.06l23.04-20.51c15.75-14.02,34.38-23.47,52.54-33.98,9.79-8.4,20.99-13.85,32.92-17.9-2.67-15.29-6.09-27.68-7.1-42.8l-4.46-60.44c-.82-12.25-2.59-24.68-.68-36.76l6.65-37.04c2.31-14.62,9.88-28.14,18.75-39.51,7.8-10.01,20.63-13.93,32.46-9.79l15.95,5.58,24.12,25.53c10.76,11.39,22.48,29.45,26.65,44.95l9.77,36.28c8.15,30.24,9.61,53.08,6.71,84.46l-4.66,22.39,29.79,7.76c10.78,2.81,21.03,6.89,30.85,12.61l9.82,9.02,28.34,21.55c9.75,7.42,17.07,16.74,24.91,26.31,16.97,20.7,32.41,41.87,42.74,66.79l7.22,22.44c4.39,13.63,7.58,27.68,6.95,42.18l-.89,20.48c-2.83,23.85-7.6,46.51-13.15,69.81-3.53,14.82-9.93,28.23-17.12,41.31l-13.18,23.97c-5.76,10.48-14.26,18.64-23.67,26.12l-28.46,22.62-29.63,19.08c-8.77,5.64-17.54,10.03-27.92,12.83-11.27,3.04-22.08,9.53-34.44,10.38ZM547.56,492.15c8.05-3.12,14.13-11.15,17.09-18.18-11.03,1.54-19.88,1.34-26.67-7.09-.33-12.83,7.99-22.75,11.02-41.83l4.18-26.28,1.3-26.04-1.85-37.02c-2.49-22.67-9.42-38.4-18.26-59.22-4.9-11.55-9.45-17.63-20.3-24.89-2.5-1.67-7.27,2.59-8.47,5.14-4.88,10.41-5.72,16.01-5.67,27.51l.16,35.72,2.55,32.14c.74,11.1,5.14,22,4.99,33.27-.14,10.54.15,18.79,3.72,28.42,5.8-.35,11.7-.15,16.7,1.01,5.29,7.47,7.42,17.07,3.75,24.92-13.41,4.19-25.39,13.77-23.09,28.15,2.78,17.45,25.8,29.33,38.85,24.27ZM613.77,605.43c11.36-13.29,14.31-30.9,13.64-48.55-.59-15.58-11.18-29.24-25.69-36.04-33.41-2.06-49.05,24.57-52.96,56.81-2.15,17.79,2.93,32.7,17.53,44.29,12.99,10.32,36.8-4.01,47.48-16.5ZM503.99,621.98c8.65-4.67,13.34-9.92,16.92-18.76,4.98-12.29,6.94-23.08,3.35-36.25-2.29-8.4-4.01-16.9-9.17-24.07-10.61-14.72-28.86-22.14-45.44-12.58-17.39,10.03-25.56,29.99-23.33,49.72l9.72,24.41c3.53,8.86,9.93,12.82,17.52,17.19,10.64,6.11,19.38,6.3,30.44.33ZM669.89,695.46c11.84-4.78,19.07-13.12,21.99-24.78,4.34-17.39,9.67-31.28-4.25-49.67-4.5-5.94-13.64-11.25-21.38-10.82-11.86.66-22.9,7.49-31.08,14.84-7.72,6.95-10.27,15.15-11.63,24.74l-3.51,24.78c4.41,13.8,15.61,26.37,31.11,27.3,5.91.35,13.05-4.08,18.76-6.39ZM457.72,660.74c-2.44-13.25-17.66-33.65-26.47-39.45l-14.01-9.23c-10.32-6.8-33.99,7.77-36.43,30.73-1.65,15.5,6.66,30.79,15.23,43.69,7.15,10.77,27.17,19.97,39.21,12.98,15.29-8.88,20.71-20.18,22.48-38.72ZM563.13,797.92c10.91,2.31,21.46,3.79,32.71,4.14,15.97.49,34.47-24.15,36.86-41.27,1.22-8.73-.87-21.53-6.18-28.67l-21.29-28.63-28.34-29.38c-18.47-12.51-42.9-17.46-62.55-5.4-18.61,11.43-30.31,40.06-50.8,56.68-10.18,8.26-17.77,34.93-16.02,40.64l5.61,18.36c3.45,11.3,17.74,21.09,29.5,19.23l23.91-3.77c13.8-2.18,14.89-10.73,56.59-1.92Z"/>
    <path class="cls-1" d="M511.36,413.8c5.8-.35,11.7-.15,16.7,1.01,5.29,7.47,7.42,17.07,3.75,24.92-13.41,4.19-25.39,13.77-23.09,28.15,2.78,17.45,25.8,29.33,38.85,24.27,8.05-3.12,14.13-11.15,17.09-18.18,0,0,15.65-17.97,19.34-24.94,3.44-6.49,9.08-27.94,9.08-27.94l29.79,7.76c10.78,2.81,21.03,6.89,30.85,12.61l9.82,9.02,28.34,21.55c9.75,7.42,17.07,16.74,24.91,26.31,16.97,20.7,32.41,41.87,42.74,66.79l7.22,22.44c4.39,13.63,7.58,27.68,6.95,42.18l-.89,20.48c-2.83,23.85-7.6,46.51-13.15,69.81-3.53,14.82-9.93,28.23-17.12,41.31l-13.18,23.97c-5.76,10.48-14.26,18.64-23.67,26.12l-28.46,22.62-29.63,19.08c-8.77,5.64-17.54,10.03-27.92,12.83-11.27,3.04-22.08,9.53-34.44,10.38l-43.4,2.98c-10.88.75-23.16.7-33.5-1.87l-43.81-10.88c-7.15-1.78-14.9-3.31-21.31-6.69-10.73-5.66-22.56-9.37-32.33-16.18l-23.42-16.34c-10.16-7.09-17.51-17.66-23.99-28.19-10.14-16.47-20.3-32.21-27.93-49.89l-15.07-34.95c-3.23-7.49-7.24-14.69-8.77-22.82l-4.42-23.48c-3.07-16.27,1.29-32.53,2.83-48.76l2.79-29.41c.91-9.64,5.6-18.72,8.38-28.11.63-2.12.72-6.62,1.93-8.62l16.03-26.42c5.86-9.66,12.66-18.5,21.16-26.06l23.04-20.51c15.75-14.02,34.38-23.47,52.54-33.98,9.79-8.4,20.99-13.85,32.92-17.9l42.45-14.44ZM613.77,605.43c11.36-13.29,14.31-30.9,13.64-48.55-.59-15.58-11.18-29.24-25.69-36.04-33.41-2.06-49.05,24.57-52.96,56.81-2.15,17.79,2.93,32.7,17.53,44.29,12.99,10.32,36.8-4.01,47.48-16.5ZM503.99,621.98c8.65-4.67,13.34-9.92,16.92-18.76,4.98-12.29,6.94-23.08,3.35-36.25-2.29-8.4-4.01-16.9-9.17-24.07-10.61-14.72-28.86-22.14-45.44-12.58-17.39,10.03-25.56,29.99-23.33,49.72l9.72,24.41c3.53,8.86,9.93,12.82,17.52,17.19,10.64,6.11,19.38,6.3,30.44.33ZM669.89,695.46c11.84-4.78,19.07-13.12,21.99-24.78,4.34-17.39,9.67-31.28-4.25-49.67-4.5-5.94-13.64-11.25-21.38-10.82-11.86.66-22.9,7.49-31.08,14.84-7.72,6.95-10.27,15.15-11.63,24.74l-3.51,24.78c4.41,13.8,15.61,26.37,31.11,27.3,5.91.35,13.05-4.08,18.76-6.39ZM457.72,660.74c-2.44-13.25-17.66-33.65-26.47-39.45l-14.01-9.23c-10.32-6.8-33.99,7.77-36.43,30.73-1.65,15.5,6.66,30.79,15.23,43.69,7.15,10.77,27.17,19.97,39.21,12.98,15.29-8.88,20.71-20.18,22.48-38.72ZM563.13,797.92c10.91,2.31,21.46,3.79,32.71,4.14,15.97.49,34.47-24.15,36.86-41.27,1.22-8.73-.87-21.53-6.18-28.67l-21.29-28.63-28.34-29.38c-18.47-12.51-42.9-17.46-62.55-5.4-18.61,11.43-30.31,40.06-50.8,56.68-10.18,8.26-17.77,34.93-16.02,40.64l5.61,18.36c3.45,11.3,17.74,21.09,29.5,19.23l23.91-3.77c13.8-2.18,14.89-10.73,56.59-1.92Z"/>
  </g>
</svg>