<?xml version="1.0" encoding="UTF-8"?>
<svg xmlns="http://www.w3.org/2000/svg" viewBox="0 0 1080 1080">
  <defs>
    <style>
      .cls-1 {
        fill: #ffb850;
      }

      .cls-2 {
        fill: #fff2d0;
      }

      .cls-3 {
        fill: #5e4432;
      }
    </style>
  </defs>
  <rect class="cls-1" width="1080" height="1080"/>
  <g id="Layer_1" data-name="Layer 1">
    <g>
      <g>
        <path class="cls-2" d="M852.96,529.54l-.71,7.07-1,7.98-.48,4.44-.92,6.69c-.01,4.78-1.55,7.89-5.07,10.95l-4.76,5.15-12.34,3.07-4.57-.15-5.18-.65-4.85-1.1-6.28-2.21c-3.69-1.3-7.01-2.3-9.37-5.29-3.04-3.84-4.99-7.72-5.79-12.7l-1.89-11.84c-.25-1.53-.74-3.25-1.29-4.77l1.37-19.75,1.13-7.26,3.49-19.5,6.48-30.67.54-6.1.79-3.6c.78-3.54.32-7.25.16-10.94-.07-1.62-.99-3.7-1.41-5.45-.68-4.11-3.03-6.76-6.95-8.12l-13.11-4.54-8.25-3.68c-2.53-1.13-5-3.08-6.08-5.6l-3.55-8.23c-3.54-8.19,1.33-16.85,6.92-23.9,2.02-2.55,5.37-3.52,8.4-4.33l6.75-1.8c1.7-.45,3.61-1.07,5.53-.86,4.16.46,9.97.34,10.37-.35.21-.36.45-1.19.58-1.77l1.84-7.99,1.08-4.77,1.83-8.3,1.04-5.44,1.12-3.62,1.73-7.58,2.25-9,3.76-10.1,3.29-6.14c1.07-1.99,1.96-4,3.43-5.69l7.43-8.55c9.09-7.99,19.32-14.32,31.01-17.45l14.41-3.86,10.9-1.27c7.16-.84,13.79,0,20.69,1.6l12.22,2.84,4.11,1.37c7.95,2.65,14.96,6.17,22.25,10.39,3.97,2.3,5.67,6.52,8.12,10.41,3.4,5.41,4.62,11.56,5.43,18,.47,3.74-1.25,7.18-2.81,10.54l-4.09,8.78c-.59,1.26-8.32,5.52-10.89,5.08l-9.46-1.6c-10.01-3.1-19.59-6.17-30.26-6.58l-6.52.21c-5.2.17-16.79,2.83-20.43,6.23-1,.93-2.38,2.75-2.85,3.93l-5.36,13.42c-1.44,3.6-1.83,7.83-1.01,11.59l1.53,6.99c10.96,8.31,25.95,6.44,36.37,11.44l11.98,7.92,2.34,2.7c1.15,1.33,2.75,3.56,2.99,5.32l.99,7.13c.44,3.21,2.89,9.81-1.55,14.65l-4.36,4.75c-2.64,2.88-7.37,4.35-11.55,5.15l-11.12,2.13-6.85.66c-1.88.18-3.49,1.2-5.49.65l-6.73-1.87c-1.27-.35-2.79-.26-4.19-.36l-5.75-.43-.57,4.67-.3,8.78-2.26,11.16c-.44,2.19-1.08,4.32-.86,6.6.26,2.74.17,5.19.18,7.83l.03,6.8-1.89,11.66-1.91,12.73-2.41,16.08-.48,2.85-1.05,7.34Z"/>
        <g>
          <path class="cls-2" d="M905.2,679.11l-3.96-.51-3.81-.46-5.62-.57c-4.02-.41-7.3-2.21-10.58-4.61-4.11-3.01-8.64-5.65-11.92-9.88-1.42-1.82-3-4.29-3.84-6.59l-1.87-5.09c-1.37-3.73-.26-7.91.86-11.65l1.47-4.9,2.88-8.86,4-13.99.92-3.59,2.4-6.94,1.37-6.54,4.36-14.28,7.51-15.6,3.1-7.03,10.54-20.7,1.73-4.48,2.23-5.61-1.96-1.22c.02-2.99,1.08-5.78,2.42-8.51l2.35-4.77,3.88-7.21,2.86-4.97c3.31-5.75,8.62-8.88,14.71-10.78,3.29-1.03,6.18-1.91,9.59-1.57l10.56,1.06,4.12.64,4.57.97c2.97.63,6.92.91,9.26,2.84l3.45,2.85,5.65,7.17,1.85,3.23,1.35,3.13c1.73,4.01,1.43,8.89,1.11,13.18l-.27,3.62-.3,4.67-.3,4.51-1.48,10.94-1.58,5.26-3.26,6.73-5.73,13.45-6.91,16.84-2.83,7.34-2.18,6.77-8.01,21.58-4.79,11.67-3.87,9-6.56,14.98-2.94,5.94c-2.8,5.65-6.74,9.45-12.66,11.43-4.6,1.54-8.71,1.75-13.9,1.09Z"/>
          <path class="cls-2" d="M980.44,479.19l-4.62.28c-2.17.13-4.18.05-6.25-.67l-5.13-1.79c-3.32-1.16-7.29-1.97-10.11-4.28-3.97-3.24-7.12-7.6-9.68-11.92l-2.79-4.72c-1.25-2.12-3.77-5.4-3.34-9.09l1.15-9.8c.24-2.09,1.27-4.02,2.43-5.86,5.03-7.98,11.3-14.47,19.36-19.21,4.99-5.04,12.25-6.72,19.09-5.32,1.42.29,3.18-.17,4.66-.2,3.93-.07,7.78,2.14,11.25,3.86,4.84,2.4,9.79,6.27,12.28,11.09,1.78,3.44,4.13,7.02,4.55,10.85l.53,4.87c.52,4.78-.65,13.04-2.68,16.92l-2.94,5.63c-3.69,7.07-9.56,13.02-17.15,16.13l-10.61,3.22Z"/>
        </g>
      </g>
      <g>
        <path class="cls-2" d="M106.08,511.13l-3.4-4.14-9.23-10.88-9.69-10.36-7.2-8.19c-2.92-3.32-5.76-6.74-6.88-11.16l-2.7-10.58c.38-2.35.09-4.42-.91-6.27.35-2.94,1.88-5.08,4.51-6.26,1.44-.65,2.28-2.51,3.41-3.4l11.24-8.89,10.51-5.35c3.21-1.63,12.63-.18,16.01,2.44l8.07,6.25,9.13,6.75c5.8,5.25,10.47,10.8,13.78,17.99,1.53,3.31,3.62,6.08,6.05,8.79,3.09,3.45,5.14,7.96,8.49,11.1l6.88,6.46,9.25,8.14,3.55,2.31c.87-1.86,1.35-3.22,1.65-5.09l1.35-8.31,1.13-7.08.29-5.38.93-8.54-.26-5.17-.37-9.58.68-8.27,1.75-8.88,1.08-5.35c.61-3.03,1.2-5.62,1.43-8.76.65-9.06,6.11-16.67,15.26-18.84l15.43-3.66c2.76-.65,6.22-.39,8.57.9,5.21,2.85,9.81,5.89,14.22,9.69l2.52,2.18,4.83,4.84,2.9,3.27,4.4,3.31c1.14.86,2.81,2.72,3.77,3.9l2.67,3.31,6.64,7.11,8.6,8.29,6.38,6.25,4.42,2.48c.37.21,1.87.59,1.97.18.12-.51.2-1.4.2-2.15v-5.9s-.49-11.84-.49-11.84l-.49-5.34-.32-5.15-2.65-9.97-1-5.86-.44-4.28-1.02-6.43-.94-10.72v-4.25s.41-11.35.41-11.35l1.02-9.31c.59-5.36.99-10.2,3.01-15.3,1.41-3.55,4.18-6.22,7.09-8.77,2.91-2.56,5.7-5.49,9.34-7.06,3.89-1.68,8.03-1.98,12.22-2.69,5.13-.86,10.83-1.09,15.8,1.11,2.33,1.03,4.73,3.73,6.31,5.65,5.44,6.6,6.16,14.63,7.22,22.7l3.67,27.97,1.54,8.73.82,8.08.83,6.1,1.07,6.9.76,7.54.64,7.1-.36,7.51.62,11.55.3,5.09-.45,20.52-.07,3.38.31,12.36.77,5.52,1.34,7.86,1.01,4.18,2.17,10.84c1.03,5.13.98,10.12-.11,15.43-.52,2.57-2.12,5.54-3.38,7.92-1.65,3.1-3.8,5.33-6.51,7.36-9.43,7.05-10.69,7.42-22.19,7.55l-4.24.05c-4.22.05-7.85-.98-11.39-3.06l-7.3-4.29c-2.71-1.59-4.16-4.31-6.49-6.42l-7.79-7.06-7.31-6.29-12.16-9.69-7.75-5.99-8.39-6.9c-1.47-1.21-6.27-7.21-9.98-7.21-.52,0-1.16,1.19-1.26,1.7l-.97,4.85-.53,4.19-.32,11.35-.3,8.16.54,8.36.09,6.9-.18,4.77-.37,4.91.13,4.79c.14,5.11-1.8,9.91-2.81,14.78-.55,2.67-.94,5.16-2.1,7.54l-2.8,5.77-1.76,3.88c-1.35,2.96-3.03,9.03-6.44,11.23l-9.29,5.99c-3.01,1.94-7.71.45-11.02.77-.87.08-2.64.49-3.41.33-7.53-1.51-14.19-3.73-20.01-8.54l-3.77-3.11-9.38-8.14-9.45-10.7-11.71-13.72-3.82-4.07-13.81-15.84-5.39-6.35-6.03-7.77-4.5-6.02-7.65-9.26Z"/>
        <g>
          <path class="cls-2" d="M601.15,530.37l-4.07,4.39-3.18,2.35-5.44,3.08-3.89,2.3-9.36,6.28-11.31,7.19-4.52,2.18c-5.03,3.2-9.98,4.98-15.89,6.01l-5.88,1.02-7.01,1.37-6.95,1.5-9.89,1.69-13.54.61-2.65.04-4.43.11-6.5-.55-5.01-.79-3.85-.43-15.63-4.41-5.4-1.94-9.94-4.22c-5.44-2.31-10.54-4.62-15.71-7.54l-5.77-3.26c-3.56-2.01-6.17-4.54-9.2-7.33l-4.7-4.31-8.06-9.06-5.54-7.02-2.15-3.52c-2.01-2.07-3.02-4.02-4.25-6.56-6.05-12.49-10.43-25.48-12.08-39.18l-1.03-8.59.08-3.89.32-5.39.18-5,1.19-6.63,3.61-12.87c.59-2.1,1.38-3.5.99-5.69l1.74-4.31,2.87-6.18,4.55-9.09,5.08-9.75,1.71-4.08,3.82-6.76c4.05-7.16,10.03-12.6,16.77-17.29l9.03-6.28,3.54-2.35c5.48-3.64,10.91-7.05,17.57-8.35,3.63-3.17,8.15-3.7,12.82-4.2l11.84-1.25,13.61.45,8.44,1.28,7.51,1.45,5.02.9c9.32,1.67,17.87,4.24,25.96,9.01l14.29,8.42c11.53,6.8,25.38,17.49,21.96,31.23-2.28,3.3-6.43,5.07-9.37,7.61l-9.97,8.61-6.58,4.72c-3.91,2.81-9.51,5.89-12.85,3.43l-14.38-10.6c-3.04-2.85-6.53-4.92-10.62-5.65-5.95-3.58-12.57-3.38-19.2-3.43-11.86-.09-17.93,2.81-27.55,8.72-2.44,1.49-4.53,3.1-6.68,5.02l-3.72,3.32-3.47,4.81c-1.89,2.62-4.01,4.58-5.43,7.42-2.24,4.5-4.41,8.87-5.21,13.86-.9,5.68-1.48,10.99-1.4,16.67.02,1.19-.2,3.27.1,4.29l2.48,8.35,2.57,5.73c1.47,3.28,2.6,6.76,4.64,9.67l4.22,6.02,3.42,4.26,10.49,7.66c4.25,3.1,8.69,5.15,13.95,6.17l5.14,1.81,10.81,1.09,6.77.1,5.22-.16,18.31-3.39,8.74-3.03c4.73-.58,8.95-2.05,12.92-4.58l6.15-3.92,13.46-7.76,15.96-8.94c3.89-2.18,8.07-5.73,12.61-4.01l4.54,1.71c6.18,2.34,10.55,6.85,14.77,11.68,1.39,1.6,2.05,3.18,1.96,5.36,1.24,1.66,1.81,3.92,1.34,6.21.85,4.57-.32,8.99-3.64,12.36-.56,3.55-3.4,6.02-6.6,7.67-1.22,2.58-2.74,4.75-5.57,6.37Z"/>
          <path class="cls-2" d="M584.93,596.91c-4.03-2.83-7.48-5.67-10.81-9.4-3.67-4.12-8.14-8.06-10.17-13.18-1-2.53,1.76-5.38,3.76-6.21l8.98-3.76,7.32-4.86,6.48-5.67,3.4-2.4,7.66-5.17c1.08-.73,2.91-1.22,4.18-.79,1.5.51,1.98,2.83,7.54,5.51l5.76,2.78,3.96,1.8,4.17,1.68,5.7,2.29,5.98,1.93c4,1.29,7.68,1.27,11.79,1.2l11.56-.2,5.58,3.66,2.72,1.89c2.37,4.49,3.57,9,4.83,13.79l1.87,7.13,2.03,10.38.79,6.4-.19,2.92c.45,1.24.38,4.61-1.21,5.03l-8.52,2.28.44,3.92,1.71,9.6c3.67-.28,6.95-.53,9.92,1.25,1.18,2.57.44,6.82-1.16,9.26-1.96,1.06-4.55,1.8-6.07,3.54-1.55,1.79-2.24,5.64-1.31,7.58,3.82,7.97,7.2,6.36,11.88,6.89,5.15.58,8-3.87,7.55-5.83l-.59-2.55c-2.19,1.87-6.21,2.94-8.71,1.05-.62-.69-.05-2.84.29-3.77l2.29-6.23,2.98-10.93.69-11.24-.39-21.27c-.85-7.85-2.5-14.99-5.14-22.39l-4.9-11.04-1.95-3.2c-2.67-4.38-6.6-6.02-7.69-8.3l-1.97-4.08c1.36-2.46,2.59-4.34,4.28-5.93,5.71.77,10.38,2.78,14.06,6.98,6.27-8.12,10.41-16.71,14.26-25.83.99-2.34,1.46-4.58,1.91-7.17l.73-4.22c.84-4.88,2.9-10.1,1.78-14.97l-2.02-8.8-2.32-4.84-2.34-4.11c-3.51-6.17-12.89-17.17-18.27-19.82l-9.94-4.89-7.65-3.06-5.91-1.59-10.86-1.86c-5.27-.9-10.44-1.08-15.66-.03l-9.28,1.86c-5.56,1.79-10.8,3.63-15.84,6.41l-9.8,5.4c-6.42,3.11-12.08,6.86-17.62,11.2l-3.84,1.93-6.9,3.59c-1.66.86-2.87,1.56-4.33,2.62l-3.76,2.07c-3.01,1.66-5.48,1.78-8.78,2.22l-5.27.71c-2.97.4-5.25.65-7.42-1.32-3.4-.3-8.07-3.87-9.62-7.21-2.5-5.39-2.5-14.87-.61-19.83l1.64-4.3c.64-1.69,1.03-3.4,2.04-4.98l6.28-9.81c2.52-.97,4.22-2.77,5.09-5.34l7.98-7.33,15.51-11.19,7.45-4.53,4.11-2.35,5.7-2.9c11.77-6,24.48-9.85,37.39-12.51l4.38-.9,11.12-1.68,5.76-.24,5.34-.22,9.37.25,9.1.99,3.57,1.67,5.47.83,9.14,3.03,7.78,2.81,7.23,3.36,3.25,1.67,4.14,2.45,5.45,2.18,5.82,3.19,6.05,3.6,2.12,2.6c1.18.51,2,.97,2.81,1.91l3.47,4.02,4.97,6.11,2.61,3.28,3.46,5.84,3.42,6.28,2.47,5.46,4.98,13.1,4.03,14.77,1.41,7.13,1.93,15.91c-.89,3.09-.42,5.97,1.29,8.32.12,4.11-.68,7.35-1.62,10.9l-1.49,5.57-4.74,15.42-2.78,8.42-3.59,7.5c-3.39,7.07-7.7,13.16-12.68,19.12-3.82,4.58-7.25,9.21-12.13,12.96-1.9,1.46-3.2,3.31-5.84,4.13-1.36.42-2.91,2.05-3.98,2.62l-6.72,3.62c-.68,5.59-.59,10.3-.42,15.68l-.8,6.82-.44,3.67-1.4,6.53,4.43.73,4.17.53c6.1.77,16.71,6.26,21.54,10.43l9.38,8.09c4.07,3.51,7.11,7.63,10.44,11.88,1.82,2.32,2.84,4.76,4.4,7.18l4.39,6.76c1.3,2,2.98,4.5,3.76,6.69l1.81,5.07,2.37,10.11c1.64,6.99,3.08,13.6,2.38,20.76l-1.12,11.51-2.11,9.18c-.66,6.5-3.52,12.05-6.61,17.68l-2.44,4.45-3.61,7.17c-2.31,4.59-5.38,8.87-9.04,12.54l-3.89,3.9-9.95,7.06-11.31,6.68c-8.55,5.05-24.3,9.08-34.37,8.81l-10.2-.28c-5.57-.15-10.63-2.05-16.09-3.19-8.68-1.82-13.76-3.2-21.82-7.98l-9.68-5.74c-7.72-4.57-12.28-8.36-16.79-16.59l-3.01-5.51-4.37-7.75-3.83-8.48-1.64-3.55c-4.23-9.15-6.89-24.58-5.54-34.98.47-3.65.92-6.91-.13-10.71l1.2-5.95,1.29-4.81c.58-2.17,1.27-4,1.94-6.13l2.56-8.09c3.83-6.84,8.46-13.11,14.21-18.73l16.43-13.06,9.28-5.56,4.73-2.71c4.31-2.47,8.58-4.57,13.81-5.5-1.89-5.86-3.4-11.87-2.82-17.98l-11.36.23-5.97-.12-3.46-.41-15.63-1.81c-2.36-.27-4.42-1.03-6.56-1.95l-6.37-2.73c-5-2.15-9.44-4.81-14.15-7.56l-5.04-2.94-4.06-2.85ZM662.19,719.81l6.53.85c10.68-3.95,15.38-17.33,11.11-26.78-2.89-6.41-10.69-15.34-15.19-14.06-4.77,1.35-8.4,4.54-10.24,8.84l-2.56,5.98c-.82,1.92-1.07,6.19-.52,8.28l5.7,12.69c.83,1.85,3.35,3.96,5.18,4.2ZM701.17,719.5c3.58.56,15.55-7.77,16.27-14.89l.84-8.23c.37-3.6-.72-6.41-2.47-9.32-1.71-2.84-3.31-5.29-5.84-7.59l-5.12.26-6.39,2.23c-.84.73-2.61,2.16-3.28,3.01l-4.04,5.08c-2.54,3.19-3.19,8.14-3.41,12.09-.2,3.65.34,6.34,1.89,9.44,1.36,2.7,3.23,5.81,6.13,7.08l5.4.85ZM654.12,740l2.16-7.58c.39-1.37.17-4.33-.05-5.83-1.32-3.83-4.31-6.3-6.78-9.17-2.34-2.73-4.86-4.6-8.06-5.84-2.19-.84-3.64-1.23-5.54.46-2.96,2.65-6.1,5.49-7.58,9.19-2.39,6-.42,11.32,3.07,16.38l3.32,4.8c.87,1.26,2.83,3.08,4.35,3.92,2.1,1.15,5.81,1.51,8.21.75,2.97-.94,6.07-4.18,6.9-7.09ZM730.3,746c3.15-1.08,4.82-2.69,6.96-4.66,1.39-1.28,3.23-2.65,3.78-4.66l2.37-8.71c.61-4.71-1.91-13.43-6.53-15.26l-4.53-.86c-7.69,1.81-14.07,5.72-16.81,13.21l-1.09,2.98-.87,7.3c.9,4.15,3.09,8.88,6.82,11.2,2.67,1.66,7.01.47,9.92-.53ZM681.66,780.53c2.28-.67,5.31.03,7.52.47l12.81,2.52c2.74.54,4.4.76,6.96-.45s4.56-2.45,6.21-5.06c1.44-2.27,3.43-5.03,4.15-7.8,1.51-5.83-.38-13.18-4.57-17.3-4.67-4.6-5.79-8.49-11.64-13.9l-6.68-6.18c-1.15-1.06-4.37-1.45-5.81-1.76l-4.22-.89c-2-.42-5.04.6-7.21,1.25-6.25,1.87-13.19,9.01-14.68,15.61l-3.59,3.81c-5.93,6.29-10.3,8.68-9.89,20.59.03.94,1.22,2.75,1.6,3.56,3.55,7.68,10.69,10.95,18.66,8.59l10.39-3.07Z"/>
        </g>
      </g>
    </g>
    <path class="cls-3" d="M692.41,649.59c.46,1.96-1.8,8.96-6.95,8.38-4.68-.53-8.06,1.08-11.88-6.89-.93-1.95-.24-5.79,1.31-7.58,1.51-1.74,4.11-2.47,6.07-3.54,1.6-2.45,2.34-6.69,1.16-9.26-2.97-1.78-6.25-1.52-9.92-1.25l-11.85,5.58c-5.22.93-9.49,3.04-13.81,5.5l-4.73,2.71-9.28,5.56-16.43,13.06c-5.74,5.62-10.37,11.89-14.21,18.73l-2.56,8.09c-.67,2.13-1.36,3.97-1.94,6.13l-1.29,4.81-1.2,5.95c1.05,3.8.6,7.06.13,10.71-1.35,10.4,1.31,25.83,5.54,34.98l1.64,3.55,3.83,8.48,4.37,7.75,3.01,5.51c4.5,8.23,9.07,12.02,16.79,16.59l9.68,5.74c8.06,4.78,13.13,6.16,21.82,7.98,5.45,1.14,10.52,3.04,16.09,3.19l10.2.28c10.07.28,25.82-3.75,34.37-8.81l11.31-6.68,9.95-7.06,3.89-3.9c3.66-3.67,6.73-7.95,9.04-12.54l3.61-7.17,2.44-4.45c3.09-5.64,5.94-11.18,6.61-17.68l2.11-9.18,1.12-11.51c.7-7.17-.75-13.78-2.38-20.76l-2.37-10.11-1.81-5.07c-.78-2.19-2.46-4.69-3.76-6.69l-4.39-6.76c-1.57-2.42-2.58-4.85-4.4-7.18-3.33-4.25-6.37-8.37-10.44-11.88l-9.38-8.09c-4.83-4.16-15.44-9.66-21.54-10.43l-4.17-.53-4.43-.73s-3.09,6.65-4.44,8.68-6.51,7.78-6.51,7.78ZM687.73,702.13c.21-3.96.87-8.9,3.41-12.09l4.04-5.08c.67-.85,2.44-2.28,3.28-3.01l6.39-2.23,5.12-.26c2.53,2.3,4.13,4.75,5.84,7.59,1.75,2.91,2.83,5.72,2.47,9.32l-.84,8.23c-.72,7.13-12.69,15.45-16.27,14.89l-5.4-.85c-2.9-1.27-4.78-4.38-6.13-7.08-1.56-3.1-2.09-5.8-1.89-9.44ZM651.84,694.64l2.56-5.98c1.84-4.3,5.47-7.49,10.24-8.84,4.5-1.28,12.3,7.65,15.19,14.06,4.27,9.45-.44,22.83-11.11,26.78l-6.53-.85c-1.82-.24-4.35-2.35-5.18-4.2l-5.7-12.69c-.55-2.09-.3-6.36.52-8.28ZM639.02,746.34c-1.53-.84-3.48-2.66-4.35-3.92l-3.32-4.8c-3.5-5.06-5.46-10.38-3.07-16.38,1.47-3.7,4.62-6.54,7.58-9.19,1.89-1.7,3.35-1.3,5.54-.46,3.21,1.23,5.72,3.11,8.06,5.84,2.47,2.87,5.46,5.34,6.78,9.17.22,1.5.44,4.46.05,5.83l-2.16,7.58c-.83,2.91-3.93,6.16-6.9,7.09-2.4.76-6.11.4-8.21-.75ZM719.31,770.2c-.72,2.78-2.71,5.53-4.15,7.8-1.65,2.61-3.67,3.86-6.21,5.06-2.56,1.21-4.22.99-6.96.45l-12.81-2.52c-2.21-.44-5.25-1.14-7.52-.47l-10.39,3.07c-7.98,2.36-15.12-.91-18.66-8.59-.37-.81-1.57-2.62-1.6-3.56-.41-11.91,3.96-14.3,9.89-20.59l3.59-3.81c1.49-6.6,8.43-13.74,14.68-15.61,2.18-.65,5.22-1.67,7.21-1.25l4.22.89c1.45.31,4.66.7,5.81,1.76l6.68,6.18c5.85,5.41,6.97,9.3,11.64,13.9,4.18,4.12,6.08,11.47,4.57,17.3ZM743.41,727.96l-2.37,8.71c-.55,2.02-2.39,3.39-3.78,4.66-2.14,1.97-3.81,3.58-6.96,4.66-2.9,1-7.24,2.19-9.92.53-3.73-2.32-5.92-7.05-6.82-11.2l.87-7.3,1.09-2.98c2.74-7.49,9.13-11.4,16.81-13.21l4.53.86c4.63,1.83,7.14,10.55,6.53,15.26Z"/>
  </g>
</svg>